<svg xmlns="http://www.w3.org/2000/svg" viewBox="0 0 229.66 39.23"><defs><style>.cls-1,.cls-3{opacity:0.9;}.cls-2,.cls-3{fill:#fff;}</style></defs><g id="Layer_2" data-name="Layer 2"><g id="DESIGN"><g class="cls-1"><g class="cls-1"><path class="cls-2" d="M62.1,33.59A19.39,19.39,0,0,1,48,39.23a19.39,19.39,0,0,1-14.1-5.64,18.78,18.78,0,0,1-5.76-14,18.78,18.78,0,0,1,5.76-14A19.39,19.39,0,0,1,48,0,19.39,19.39,0,0,1,62.1,5.64a18.78,18.78,0,0,1,5.76,14A18.78,18.78,0,0,1,62.1,33.59ZM41.45,26.15A8.85,8.85,0,0,0,48,28.76a8.89,8.89,0,0,0,9.14-9.14A8.89,8.89,0,0,0,48,10.47a8.91,8.91,0,0,0-9.15,9.15A8.9,8.9,0,0,0,41.45,26.15Z"/></g><path class="cls-3" d="M5.57,33.64q5.58,5.59,14.36,5.59,8.4,0,13.57-5.25a18.22,18.22,0,0,0,5.16-13.3V16.22H19.6v9.1h8q-1.87,4-7.44,4c-3.21,0-5.59-1-7.12-2.88a10.51,10.51,0,0,1-2.3-6.77,9.17,9.17,0,0,1,2.49-6.65,8.62,8.62,0,0,1,6.5-2.58q4.93,0,7.18,3.44L36,8.71a18.12,18.12,0,0,0-6.88-6.36A19.9,19.9,0,0,0,19.5,0,18.79,18.79,0,0,0,5.57,5.64,19.17,19.17,0,0,0,0,19.66,19,19,0,0,0,5.57,33.64Z"/></g><path class="cls-2" d="M79.74,24.76V7.2h3.77a5.68,5.68,0,0,1,1.83.27,3.55,3.55,0,0,1,1.43,1,3.77,3.77,0,0,1,.88,1.62,9.82,9.82,0,0,1,.25,2.5,11.36,11.36,0,0,1-.14,2,4.3,4.3,0,0,1-.57,1.53,3.65,3.65,0,0,1-1.39,1.34,4.62,4.62,0,0,1-2.26.48H82.25v6.86ZM82.25,9.57v6h1.21a2.63,2.63,0,0,0,1.18-.22,1.43,1.43,0,0,0,.62-.62,2.38,2.38,0,0,0,.24-.91c0-.37,0-.77,0-1.21s0-.8,0-1.17a2.66,2.66,0,0,0-.22-1,1.43,1.43,0,0,0-.6-.64,2.31,2.31,0,0,0-1.13-.22Z"/><path class="cls-2" d="M107,24.76V7.2h2.51v7.52h3.11V7.2h2.52V24.76h-2.52V16.94h-3.11v7.82Z"/><path class="cls-2" d="M133.67,24.76,137.6,7.2h2.09l3.92,17.56H141.1L140.36,21h-3.43l-.74,3.77Zm6.22-6.14-1.23-6.36h0l-1.24,6.36Z"/><path class="cls-2" d="M162.11,24.76V7.2h4q4.44,0,4.44,5.16a6.46,6.46,0,0,1-.49,2.63,3.72,3.72,0,0,1-1.69,1.76l2.72,8h-2.67l-2.34-7.5h-1.5v7.5Zm2.52-15.19V15h1.43a2.63,2.63,0,0,0,1.06-.18,1.38,1.38,0,0,0,.61-.53,2.24,2.24,0,0,0,.28-.85,9.9,9.9,0,0,0,0-2.35,2.36,2.36,0,0,0-.3-.87,2,2,0,0,0-1.78-.69Z"/><path class="cls-2" d="M189.88,24.76V7.2h2.42l3.23,9.3h.05l3.2-9.3h2.45V24.76h-2.52V14.08h-.05l-2.49,7.55h-1.26l-2.46-7.55h0V24.76Z"/><path class="cls-2" d="M219.72,24.76,223.65,7.2h2.09l3.92,17.56h-2.51L226.41,21H223l-.74,3.77Zm6.22-6.14-1.23-6.36h-.05l-1.24,6.36Z"/><path class="cls-2" d="M83.63,31.08v3.56h-.46V32l-1.13,2h-.33l-1.13-2v2.69h-.47V31.08h.47l1.29,2.31,1.3-2.31Z"/><path class="cls-2" d="M92.78,33.83H91l-.32.81h-.49l1.48-3.56h.4l1.49,3.56h-.5Zm-.16-.39-.71-1.78-.71,1.78Z"/><path class="cls-2" d="M101.69,33.12h-1v1.52h-.47V31.08h1.55a1.36,1.36,0,0,1,.9.26,1,1,0,0,1,.32.76,1,1,0,0,1-.2.64,1,1,0,0,1-.58.34l.88,1.56h-.54Zm-1-.41h1.09a.92.92,0,0,0,.56-.14.58.58,0,0,0,.18-.47.57.57,0,0,0-.19-.46,1,1,0,0,0-.58-.14h-1.06Z"/><path class="cls-2" d="M111.08,32.81l-.81.85v1h-.47V31.08h.47v2l1.83-2h.59l-1.31,1.4,1.47,2.16h-.56Z"/><path class="cls-2" d="M119.92,31.5v1.12h1.73V33h-1.73v1.18h2v.42h-2.49V31.08h2.49v.42Z"/><path class="cls-2" d="M131.15,31.5H130v3.14h-.46V31.5h-1.15v-.42h2.76Z"/><path class="cls-2" d="M137.78,31.08h.47v3.56h-.47Z"/><path class="cls-2" d="M148.2,31.08v3.56h-.47l-2-2.76v2.76h-.47V31.08h.47l2,2.76V31.08Z"/><path class="cls-2" d="M155.46,34.29a1.59,1.59,0,0,1-.39-1.17V32.6a1.63,1.63,0,0,1,.39-1.18,1.5,1.5,0,0,1,1.11-.39,1.54,1.54,0,0,1,1,.3,1,1,0,0,1,.38.83v0h-.47v0a.63.63,0,0,0-.24-.52,1.06,1.06,0,0,0-.68-.19,1,1,0,0,0-.77.28,1.31,1.31,0,0,0-.26.89v.5a1.23,1.23,0,0,0,.26.86,1,1,0,0,0,.78.28c.61,0,.92-.29.92-.87v-.21h-1v-.4H158v.58a1.28,1.28,0,0,1-.37,1,1.76,1.76,0,0,1-2.13-.06Z"/><path class="cls-2" d="M174.92,34.24v.4h-.18a.71.71,0,0,1-.31-.06,1,1,0,0,1-.27-.23l-.1-.12a1.38,1.38,0,0,1-.47.36,1.27,1.27,0,0,1-.52.11,1.19,1.19,0,0,1-.56-.13.88.88,0,0,1-.35-.34,1,1,0,0,1-.12-.49,1,1,0,0,1,.17-.57,1.88,1.88,0,0,1,.56-.51,2.28,2.28,0,0,1-.32-.46.94.94,0,0,1-.1-.39.77.77,0,0,1,.11-.4.76.76,0,0,1,.31-.28,1,1,0,0,1,1.06.11.78.78,0,0,1,.23.58.78.78,0,0,1-.15.47,1.94,1.94,0,0,1-.51.44l0,0,.71.86.47-.55.29.26-.5.59.12.15a.64.64,0,0,0,.16.14.49.49,0,0,0,.19,0Zm-1.46,0a1.19,1.19,0,0,0,.35-.28l-.8-1a1.5,1.5,0,0,0-.41.37.63.63,0,0,0-.13.39.57.57,0,0,0,.16.42.68.68,0,0,0,.47.16A.74.74,0,0,0,173.46,34.21Zm-.56-2.71a.45.45,0,0,0-.11.31.47.47,0,0,0,.07.25,1.83,1.83,0,0,0,.24.36l0,0,0,0a1.22,1.22,0,0,0,.37-.31.48.48,0,0,0,.1-.31.41.41,0,0,0-.11-.31.49.49,0,0,0-.62,0Z"/><path class="cls-2" d="M192.58,31.08v3.56h-.46V32l-1.13,2h-.33l-1.13-2v2.69h-.47V31.08h.47l1.29,2.31,1.3-2.31Z"/><path class="cls-2" d="M200,31.5v1.12h1.73V33H200v1.18h2v.42h-2.49V31.08H202v.42Z"/><path class="cls-2" d="M208.78,31.08h1.32a1.49,1.49,0,0,1,1.1.39,1.58,1.58,0,0,1,.38,1.15v.47a1.58,1.58,0,0,1-.39,1.16,1.48,1.48,0,0,1-1.1.39h-1.31Zm1.32,3.14a1,1,0,0,0,.76-.27,1.22,1.22,0,0,0,.25-.85v-.45a1.27,1.27,0,0,0-.25-.87,1,1,0,0,0-.76-.28h-.85v2.72Z"/><path class="cls-2" d="M218.48,31.08H219v3.56h-.47Z"/><path class="cls-2" d="M228.14,33.83h-1.75l-.32.81h-.49l1.49-3.56h.4L229,34.64h-.5Zm-.16-.39-.72-1.78-.71,1.78Z"/></g></g></svg>